<?xml version="1.0"?><svg viewBox="0 0 64 64" xmlns="http://www.w3.org/2000/svg"><g id="Focus_target_client"><path d="M31.97,18.0434a1.75,1.75,0,0,0,1.75-1.75v-4.519a1.75,1.75,0,0,0-3.5,0v4.519A1.75,1.75,0,0,0,31.97,18.0434Z"/><path d="M52.2258,30.22h-4.519a1.75,1.75,0,0,0,0,3.5h4.519a1.75,1.75,0,0,0,0-3.5Z"/><path d="M16.2932,30.22h-4.519a1.75,1.75,0,0,0,0,3.5h4.519a1.75,1.75,0,0,0,0-3.5Z"/><path d="M3.1179,12.1811a1.75,1.75,0,0,0,1.75-1.75V5.3837H9.9148a1.75,1.75,0,0,0,0-3.5H3.1179a1.75,1.75,0,0,0-1.75,1.75v6.7974A1.75,1.75,0,0,0,3.1179,12.1811Z"/><path d="M60.8826,1.8837H54.0847a1.75,1.75,0,0,0,0,3.5h5.0479v5.0474a1.75,1.75,0,0,0,3.5,0V3.6337A1.75,1.75,0,0,0,60.8826,1.8837Z"/><path d="M9.9148,58.8945H4.8679V53.8471a1.75,1.75,0,0,0-3.5,0v6.7974a1.75,1.75,0,0,0,1.75,1.75H9.9148a1.75,1.75,0,1,0,0-3.5Z"/><path d="M60.8826,52.0971a1.75,1.75,0,0,0-1.75,1.75v5.0474H54.0847a1.75,1.75,0,0,0,0,3.5h6.7979a1.75,1.75,0,0,0,1.75-1.75V53.8471A1.75,1.75,0,0,0,60.8826,52.0971Z"/><path d="M31.97,45.9567a1.75,1.75,0,0,0-1.75,1.75v4.5191a1.75,1.75,0,0,0,3.5,0V47.7067A1.75,1.75,0,0,0,31.97,45.9567Z"/><path d="M32,3.8561A28.1438,28.1438,0,1,0,60.1438,32,28.1437,28.1437,0,0,0,32,3.8561ZM52.2258,36.22H49.4324A17.9662,17.9662,0,0,1,36.22,49.4433v2.7825a4.25,4.25,0,0,1-8.5,0v-2.79A17.9659,17.9659,0,0,1,14.5378,36.22H11.7744a4.25,4.25,0,0,1,0-8.5h2.7788A17.9653,17.9653,0,0,1,27.72,14.5645v-2.79a4.25,4.25,0,0,1,8.5,0v2.7826A17.9658,17.9658,0,0,1,49.417,27.72h2.8088a4.25,4.25,0,0,1,0,8.5Z"/><path d="M41.6821,38.1127a9.8375,9.8375,0,0,0-5.2068-5.02.9558.9558,0,0,1-.5786-.8861v-.01a1.0057,1.0057,0,0,1,.3113-.7117,6.0144,6.0144,0,1,0-8.418-.0132,1.0046,1.0046,0,0,1,.3147.7229l0,.018a.9544.9544,0,0,1-.5777.8775,9.84,9.84,0,0,0-5.2133,5.0416,11.5165,11.5165,0,0,0-.6692,1.787,1.8543,1.8543,0,0,0,.4392,1.7676,13.57,13.57,0,0,0,6.291,3.7788,4.222,4.222,0,0,1,7.1956.0078,13.5379,13.5379,0,0,0,6.3474-3.8244A1.8551,1.8551,0,0,0,42.35,39.885,11.2771,11.2771,0,0,0,41.6821,38.1127Z"/></g></svg>